<?xml version="1.0" encoding="UTF-8"?>
<svg id="Layer_1" data-name="Layer 1" xmlns="http://www.w3.org/2000/svg" version="1.1" viewBox="0 0 282 108">
  <defs>
    <style>
      .cls-1 {
        font-family: MyriadPro-Regular, 'Myriad Pro';
        font-size: 90px;
      }

      .cls-1, .cls-2 {
        fill: #2075bc;
      }

      .cls-2 {
        stroke-width: 0px;
      }
    </style>
  </defs>
  <path class="cls-2" d="M94.6,74.6c-1.7-1.2-3.6-1.8-5.5-1.9-7.3-4.8-12.1-8.4-14.9-11.2l-8.6-8.6,5.2-5.8c1,.6,2,.9,3.1,1.1.8.1,1.3.1,1.9.1,1.1,0,1.3,0,2.4.9-.5.4-.8,1.1-.8,1.7s.3,1.5.8,2l4.7,4.7c.7.8,1.7,1.2,2.8,1.2s2.1-.4,2.8-1.3l9.5-9.5c.8-.7,1.2-1.7,1.2-2.8s-.4-2-1.2-2.8l-4.7-4.7c-.5-.5-1.2-.8-1.9-.8s-1.3.4-1.9.8c-1.1-.9-1.1-1.2-1.1-2.3s0-1.2-.3-2c-.3-1.9-1.2-3.7-2.7-5.2l-4.8-4.8c-2.8-2.8-4.1-4.1-7.7-5.7-7.7-3.6-15.6-2.9-27.1,2.3-.7.3-.9.8-.8,1.5s.7,1.1,1.3,1.1h1.7c5.9,0,8.9,0,14.3,5.3,2.3,2.3,2.4,5.9.3,8.5-.3,0-.5.2-.7.4l-5.9,6.6-4.5-4.5c-4.9-4.9-8.4-9.6-11-14.8-.1-2.6-1.2-5.1-3.1-7-2.3-2.3-5.5-3.3-8.7-3.1-.4.1-.8.4-.9.7-.3.4-.3.9,0,1.3l3.7,6.7c-.8,1.7-2.7,2.8-4.5,2.7l-3.9-6.4c-.1-.4-.7-.7-1.1-.7-.4-.1-.8.1-1.1.5-3.2,4.8-2,11.2,2.8,14.5,1.7,1.2,3.5,1.8,5.4,2,0,0,0,0,0,0,5.2,2.7,9.9,6.1,14.8,11.1l4.9,4.8-28.3,31.6c-1.1,1.1-1.6,2.5-1.6,4s.5,2.8,1.6,3.9l1.9,1.9c1.1.9,2.4,1.5,3.7,1.5s2.8-.5,3.9-1.6l28.3-31.7,8.2,8.2c2.8,2.8,6.4,7.7,11.2,14.9.2,2.6,1.2,5,3.1,6.8s4.7,3.1,7.5,3.1h1.1c.4,0,.8-.3,1.1-.7s.3-.9,0-1.3l-3.9-6.5c.9-1.7,2.7-2.8,4.7-2.7l3.7,6.4c.1.4.7.7,1.1.7.5-.1.9-.3,1.2-.7,3.2-4.8,1.9-11.2-2.8-14.5ZM64.2,25.8c-4.3-4.1-7.5-5.5-11.1-5.9,7.6-2.4,13.2-2.3,18.8.3,3.2,1.3,4.3,2.4,7.1,5.2l4.8,4.8c1.1,1.1,1.7,2.4,1.9,3.7.1.7.1,1.2.1,1.6,0,1.5.1,2.5,1.7,4.1.5.5,1.3.8,2,.8s1.5-.3,1.9-.8l4.7,4.7c.3.3.4.5.4.9s-.1.7-.4.9l-9.5,9.5c-.5.5-1.3.5-1.9,0l-4.7-4.7c.5-.4.8-1.1.7-1.9,0-.7-.3-1.5-.8-2-1.6-1.6-2.7-1.7-4.1-1.7s-.9,0-1.6-.1c-1.5-.1-2.7-.8-3.7-1.9l-5.7-5.7c2.9-3.6,2.7-8.7-.5-11.9ZM22.4,22.6l2.8,4.8c.3.4.7.7,1.1.7h.7c3.1.1,5.9-1.5,7.2-4.1l.3-.7c.3-.4.3-.8,0-1.2l-2.9-5.1c1.6.3,3.1,1.1,4.3,2.3,1.4,1.5,2.3,3.4,2.3,5.4,0,.1,0,.2,0,.3,0,.6,0,1.2-.2,1.8-.5,1.9-1.7,3.6-3.4,4.7-2.7,1.7-6.3,1.7-8.9-.1-2.8-2-4-5.6-3.1-8.8ZM46.1,44.7c-4-4.1-8-7.3-12.3-9.9.7-.3,1.5-.7,2.1-1.1,2-1.3,3.3-3.1,4.1-5.2,2.5,4.3,5.7,8.3,9.7,12.3l4.6,4.6-3.6,4-4.7-4.7ZM28.4,90.6c-1.1,1.1-2.8,1.2-3.9.1l-1.9-1.7c-.5-.5-.8-1.2-.8-1.9s.3-1.5.9-2.1l.8-.8,1.9,1.9c.3.3.5.4.9.4s.7-.1.9-.4c.5-.5.5-1.3,0-1.9l-2-2,1.8-2,2.1,2.1c.3.3.5.4.9.4s.7-.1.9-.4c.5-.5.5-1.3,0-1.9l-2.2-2.2,34.3-38.4,5.6,5.6-5.5,6.2c-.2,0-.3.2-.4.3l-5.3,6c-.2.2-.3.3-.3.5l-28.7,32.1ZM60.4,58.9l3.6-4.1,8.6,8.6c2.4,2.5,6.5,5.7,12.5,9.7-.8.3-1.6.7-2.4,1.2-1.7,1-2.8,2.5-3.6,4.1,0,0,0,0,0,0,0,0,0,.2-.1.3,0,.1-.1.3-.2.4,0,0,0,.2-.1.3,0,0,0,0,0,0,0,.1,0,.2-.1.3-.8-1.1-1.5-2.2-2.2-3.1l1.8-1.8c.5-.5.5-1.3,0-1.9-.5-.5-1.3-.5-1.9,0l-1.5,1.5c-.6-.8-1.1-1.5-1.6-2.1l1.2-1.2c.5-.5.5-1.3,0-1.9-.5-.5-1.3-.5-1.9,0l-1,1c-1-1.2-1.9-2.2-2.7-3l-8.4-8.4ZM96.1,85.5l-2.8-4.8c-.3-.4-.7-.7-1.1-.7h-.7c-3.1-.3-5.9,1.5-7.2,4.1l-.3.7c-.3.4-.3.8,0,1.2l2.9,5.1c-1.6-.3-3.1-1.1-4.3-2.3-1.3-1.5-2.2-3.3-2.3-5.3,0,0,0-.2,0-.3,0-1.7.5-3.3,1.5-4.6.6-.8,1.3-1.5,2.1-2.1,1.3-.9,2.8-1.3,4.4-1.3s3.2.5,4.5,1.5c2.8,2,4,5.6,3.1,8.8Z"/>
  <text class="cls-1" transform="translate(115 83.2)"><tspan x="0" y="0">DSL</tspan></text>
</svg>