<?xml version="1.0" encoding="UTF-8"?>
<svg id="Layer_1" data-name="Layer 1" xmlns="http://www.w3.org/2000/svg" version="1.1" viewBox="0 0 595.28 285.11">
  <defs>
    <style>
      .cls-1 {
        fill: #4e4e4e;
      }

      .cls-1, .cls-2 {
        stroke-width: 0px;
      }

      .cls-2 {
        fill: #2075bc;
      }
    </style>
  </defs>
  <g>
    <path class="cls-2" d="M62.66,155.54h34.27v3.95h-34.27v-3.95Z"/>
    <path class="cls-2" d="M98.66,155.54h34.27v3.95h-34.27v-3.95Z"/>
    <path class="cls-2" d="M139.7,115.43h4.89l.5,5.08h.2c3.06-3.31,6.72-5.94,10.89-5.94,5.35,0,8.22,2.56,9.66,6.67,3.63-3.93,7.29-6.67,11.54-6.67,7.19,0,10.65,4.76,10.65,13.69v22.18h-5.92v-21.41c0-6.52-2.06-9.31-6.51-9.31-2.71,0-5.53,1.77-8.77,5.38v25.35h-5.92v-21.41c0-6.52-2.06-9.31-6.51-9.31-2.62,0-5.54,1.77-8.77,5.38v25.35h-5.92v-35Z"/>
    <path class="cls-2" d="M196.79,132.98c0-11.68,7.64-18.41,16.22-18.41s16.22,6.73,16.22,18.41-7.64,18.32-16.22,18.32-16.22-6.73-16.22-18.32ZM223.11,132.98c0-8.02-4.08-13.48-10.1-13.48s-10.1,5.46-10.1,13.48,4.08,13.39,10.1,13.39,10.1-5.37,10.1-13.39Z"/>
    <path class="cls-2" d="M233.08,115.43h6.1l6.62,19.88c1.05,3.42,2.18,6.98,3.23,10.32h.29c1.05-3.34,2.18-6.9,3.23-10.32l6.62-19.88h5.8l-12.38,35h-6.88l-12.63-35Z"/>
    <path class="cls-2" d="M268.86,132.98c0-11.39,7.68-18.41,15.73-18.41,8.93,0,13.97,6.41,13.97,16.42,0,1.25-.11,2.5-.28,3.36h-23.57c.42,7.42,4.96,12.22,11.63,12.22,3.36,0,6.12-1.08,8.71-2.8l2.12,3.89c-3.07,2.01-6.8,3.63-11.56,3.63-9.33,0-16.76-6.82-16.76-18.32ZM293.33,130.11c0-7.01-3.15-10.83-8.63-10.83-4.92,0-9.32,3.95-10.04,10.83h18.67Z"/>
  </g>
  <g>
    <path class="cls-2" d="M339.53,155.54h34.27v3.95h-34.27v-3.95Z"/>
    <path class="cls-2" d="M375.53,155.54h34.27v3.95h-34.27v-3.95Z"/>
    <path class="cls-2" d="M414.08,132.98c0-11.35,7.16-18.41,15.14-18.41,4.07,0,6.74,1.53,9.81,4.06l-.25-6v-13.49h5.92v51.3h-4.89l-.5-4.13h-.2c-2.72,2.72-6.45,5-10.62,5-8.75,0-14.42-6.65-14.42-18.32ZM438.78,141.54v-18.35c-2.99-2.66-5.68-3.64-8.54-3.64-5.6,0-10.05,5.4-10.05,13.37,0,8.39,3.47,13.39,9.61,13.39,3.24,0,6.04-1.58,8.98-4.78Z"/>
    <path class="cls-2" d="M457.57,139.61v-19.35h-5.21v-4.48l5.47-.34.71-9.82h4.95v9.82h9.48v4.83h-9.48v19.46c0,4.28,1.38,6.76,5.41,6.76,1.24,0,2.85-.47,3.99-.94l1.14,4.47c-1.96.67-4.31,1.3-6.49,1.3-7.45,0-9.97-4.72-9.97-11.69Z"/>
    <path class="cls-2" d="M477.26,132.98c0-11.68,7.64-18.41,16.22-18.41s16.22,6.73,16.22,18.41-7.64,18.32-16.22,18.32-16.22-6.73-16.22-18.32ZM503.58,132.98c0-8.02-4.08-13.48-10.1-13.48s-10.1,5.46-10.1,13.48,4.08,13.39,10.1,13.39,10.1-5.37,10.1-13.39Z"/>
    <path class="cls-2" d="M518.88,115.43h4.89l.5,6.37h.2c2.44-4.44,6.01-7.24,9.95-7.24,1.55,0,2.64.2,3.74.72l-1.11,5.2c-1.21-.38-1.99-.58-3.4-.58-2.96,0-6.49,2.13-8.85,8.05v22.48h-5.92v-35Z"/>
  </g>
  <g>
    <path class="cls-2" d="M63.52,76.78h34.27v3.95h-34.27v-3.95Z"/>
    <path class="cls-2" d="M99.52,76.78h34.27v3.95h-34.27v-3.95Z"/>
    <path class="cls-2" d="M139.48,25.64c0-2.33,1.79-3.83,4.09-3.83s4.09,1.5,4.09,3.83-1.79,3.83-4.09,3.83-4.09-1.59-4.09-3.83ZM140.56,36.66h5.92v35h-5.92v-35Z"/>
    <path class="cls-2" d="M158.27,36.66h4.89l.5,5.05h.2c3.33-3.28,6.94-5.91,11.74-5.91,7.38,0,10.69,4.76,10.69,13.69v22.18h-5.92v-21.41c0-6.52-1.97-9.31-6.6-9.31-3.58,0-6.06,1.83-9.57,5.38v25.35h-5.92v-35Z"/>
    <path class="cls-2" d="M196.57,25.64c0-2.33,1.79-3.83,4.09-3.83s4.09,1.5,4.09,3.83-1.79,3.83-4.09,3.83-4.09-1.59-4.09-3.83ZM197.66,36.66h5.92v35h-5.92v-35Z"/>
    <path class="cls-2" d="M216.41,60.84v-19.35h-5.21v-4.48l5.47-.34.71-9.82h4.95v9.82h9.48v4.83h-9.48v19.46c0,4.28,1.38,6.76,5.41,6.76,1.24,0,2.85-.47,3.99-.94l1.14,4.47c-1.96.67-4.31,1.3-6.5,1.3-7.45,0-9.97-4.72-9.97-11.69Z"/>
  </g>
  <g>
    <path class="cls-2" d="M338.67,254.44h34.28v3.95h-34.28v-3.95Z"/>
    <path class="cls-2" d="M374.67,254.44h34.28v3.95h-34.28v-3.95Z"/>
    <path class="cls-2" d="M413.11,231.87c0-11.68,7.89-18.41,16.84-18.41,4.59,0,7.78,1.9,10.24,4.11l-3.03,3.92c-2.04-1.84-4.19-3.09-6.94-3.09-6.34,0-10.99,5.46-10.99,13.48s4.39,13.39,10.83,13.39c3.2,0,6.04-1.55,8.22-3.49l2.57,3.97c-3.15,2.8-7.12,4.45-11.32,4.45-9.31,0-16.42-6.73-16.42-18.32Z"/>
    <path class="cls-2" d="M444.43,231.87c0-11.68,7.64-18.41,16.22-18.41s16.22,6.73,16.22,18.41-7.64,18.32-16.22,18.32-16.22-6.73-16.22-18.32ZM470.75,231.87c0-8.02-4.08-13.48-10.1-13.48s-10.1,5.46-10.1,13.48,4.08,13.39,10.1,13.39,10.1-5.37,10.1-13.39Z"/>
    <path class="cls-2" d="M486.05,214.32h4.89l.5,4.04h.2c3.16-2.63,7.1-4.9,11.16-4.9,9.04,0,13.88,7.02,13.88,17.83,0,11.93-7.16,18.9-15.16,18.9-3.21,0-6.49-1.48-9.7-4.06l.16,6.11v11.85h-5.92v-49.77ZM510.56,231.35c0-7.72-2.64-12.9-9.23-12.9-2.96,0-5.95,1.63-9.36,4.78v18.35c3.17,2.66,6.21,3.64,8.52,3.64,5.79,0,10.06-5.22,10.06-13.86Z"/>
    <path class="cls-2" d="M522.21,263.69l1.16-4.72c.69.23,1.77.52,2.67.52,3.95,0,6.44-3.17,7.89-7.51l.8-2.58-14.04-35.07h6.1l7.14,19.38c1.1,3.04,2.27,6.62,3.41,9.86h.29c.99-3.18,1.99-6.77,2.94-9.86l6.24-19.38h5.8l-13.19,37.88c-2.47,6.95-6.09,12.2-13.1,12.2-1.63,0-2.98-.29-4.11-.72Z"/>
  </g>
  <g>
    <path class="cls-1" d="M136.01,192.15h22.2c14.44,0,24.8,5.18,24.8,19.95s-10.37,20.97-24.8,20.97h-13.18v29.96h-9.02v-70.88ZM156.92,225.76c11.03,0,17.1-4.47,17.1-13.66s-6.07-12.63-17.1-12.63h-11.88v26.29h11.88ZM156.43,230.6l7.07-4.67,21.63,37.1h-10.22l-18.47-32.43Z"/>
    <path class="cls-1" d="M211.61,192.15h10.18l23.98,70.88h-9.55l-12.36-39.59c-2.55-7.92-4.82-15.71-7.09-23.89h-.43c-2.19,8.22-4.47,15.96-7.02,23.89l-12.5,39.59h-9.18l23.98-70.88ZM200.23,234.24h32.64v7.2h-32.64v-7.2Z"/>
    <path class="cls-1" d="M255.35,192.15h9.02v70.88h-9.02v-70.88Z"/>
    <path class="cls-1" d="M283.75,192.15h9.02v70.88h-9.02v-70.88Z"/>
  </g>
</svg>