<?xml version="1.0" encoding="UTF-8"?>
<svg id="Layer_1" data-name="Layer 1" xmlns="http://www.w3.org/2000/svg" version="1.1" viewBox="0 0 1810.92 992.87">
  <defs>
    <style>
      .cls-1 {
        fill: #4d4d4d;
      }

      .cls-1, .cls-2 {
        stroke-width: 0px;
      }

      .cls-2 {
        fill: #1c75bc;
      }

      .cls-3 {
        isolation: isolate;
      }
    </style>
  </defs>
  <g class="cls-3">
    <g class="cls-3">
      <g class="cls-3">
        <g class="cls-3">
          <path class="cls-1" d="M736.76,524.29l8.31-12.03c12.25,8.75,26.69,14.44,46.17,14.44,17.94,0,26.69-7.44,26.69-16.41,0-8.1-4.16-13.78-33.04-19.69-27.79-5.69-41.57-15.1-41.57-31.07,0-17.07,15.1-30.19,44.2-30.19,16.19,0,32.38,6.35,42.88,13.57l-8.75,11.6c-9.85-6.78-22.1-11.16-35.66-11.16-17.94,0-24.5,7.22-24.5,15.32,0,9.19,9.19,13.13,31.07,17.72,35.23,7.66,43.76,16.41,43.76,32.82,0,17.28-16.85,31.73-47.26,31.73-20.79,0-39.38-7.66-52.29-16.63Z"/>
          <path class="cls-1" d="M897.57,496.94v-50.32h-30.19v-13.56l30.85-1.09,2.41-34.13h15.1v34.13h52.07v14.66h-52.07v50.54c0,19.04,6.34,28.88,26.91,28.88,9.85,0,17.72-1.97,25.38-4.81l3.94,13.35c-9.63,3.5-19.91,6.35-33.26,6.35-31.07,0-41.13-17.72-41.13-43.98Z"/>
          <path class="cls-1" d="M996.89,485.35c0-34.57,22.97-56.01,48.13-56.01,12.69,0,22.54,5.03,31.94,13.57h.44l-.88-19.47v-40.92h18.16v155.78h-14.88l-1.53-14h-.66c-8.75,8.97-21.44,16.63-34.79,16.63-27.57,0-45.95-20.13-45.95-55.57ZM1076.53,509.85v-52.95c-9.63-8.97-18.6-12.25-27.79-12.25-18.38,0-33.26,16.19-33.26,40.48s11.81,40.48,31.29,40.48c10.5,0,20.35-5.25,29.76-15.75Z"/>
        </g>
      </g>
    </g>
  </g>
  <g class="cls-3">
    <g class="cls-3">
      <g class="cls-3">
        <g class="cls-3">
          <path class="cls-2" d="M821.27,115.92c0-13.25,12.4-19.69,42.91-22.12-.36-8.02-4.25-14.83-15.68-14.83-7.66,0-15.19,3.65-20.66,7.05l-4.01-6.81c6.08-3.89,16.04-8.51,26.38-8.51,16.17,0,24.07,9.6,24.07,24.31v36.22h-8.39l-.85-8.02h-.36c-6.44,5.11-14.95,9.48-23.22,9.48-11.06,0-20.18-6.2-20.18-16.77ZM864.17,115.8v-15.32c-25.28,1.94-32.94,6.93-32.94,14.71,0,6.69,6.08,9.36,12.88,9.36s13.25-3.16,20.06-8.75Z"/>
          <path class="cls-2" d="M914.37,111.42v-58.59h-20.91v-8.14h31v67.46c0,8.51,4.62,12.16,11.67,12.16,3.4,0,7.05-.85,11.06-2.67l2.55,7.54c-5.47,2.31-9.36,3.53-15.8,3.53-12.64,0-19.57-7.29-19.57-21.27Z"/>
          <path class="cls-2" d="M987.3,111.42v-58.59h-20.91v-8.14h31v67.46c0,8.51,4.62,12.16,11.67,12.16,3.4,0,7.05-.85,11.06-2.67l2.55,7.54c-5.47,2.31-9.36,3.53-15.8,3.53-12.64,0-19.57-7.29-19.57-21.27Z"/>
          <path class="cls-2" d="M1037.62,101.82c0-19.81,13.61-31.12,29.17-31.12s29.17,11.3,29.17,31.12-13.61,30.87-29.17,30.87-29.17-11.3-29.17-30.87ZM1085.63,101.82c0-13.61-7.54-22.73-18.84-22.73s-18.84,9.12-18.84,22.73,7.54,22.49,18.84,22.49,18.84-9,18.84-22.49Z"/>
          <path class="cls-2" d="M1112.98,101.82c0-19.81,15.07-31.12,32.94-31.12,9.6,0,16.65,3.89,21.51,8.63l-4.98,6.44c-4.86-4.13-9.97-6.69-16.17-6.69-13.61,0-22.97,9.12-22.97,22.73s9.24,22.49,22.73,22.49c7.29,0,13.37-3.28,18.23-7.42l4.5,6.56c-6.56,5.83-14.71,9.24-23.46,9.24-18.48,0-32.33-11.3-32.33-30.87Z"/>
          <path class="cls-2" d="M1185.91,115.92c0-13.25,12.4-19.69,42.91-22.12-.36-8.02-4.25-14.83-15.68-14.83-7.66,0-15.19,3.65-20.66,7.05l-4.01-6.81c6.08-3.89,16.04-8.51,26.38-8.51,16.17,0,24.07,9.6,24.07,24.31v36.22h-8.39l-.85-8.02h-.36c-6.44,5.11-14.95,9.48-23.22,9.48-11.06,0-20.18-6.2-20.18-16.77ZM1228.82,115.8v-15.32c-25.28,1.94-32.94,6.93-32.94,14.71,0,6.69,6.08,9.36,12.88,9.36s13.25-3.16,20.06-8.75Z"/>
          <path class="cls-2" d="M1274.16,108.26v-27.96h-16.77v-7.54l17.14-.61,1.34-18.96h8.39v18.96h28.93v8.14h-28.93v28.08c0,10.58,3.53,16.04,14.95,16.04,5.47,0,9.85-1.09,14.1-2.67l2.19,7.41c-5.35,1.95-11.06,3.53-18.48,3.53-17.26,0-22.85-9.85-22.85-24.43Z"/>
          <path class="cls-2" d="M1329.34,101.82c0-19.81,13.61-31.12,29.17-31.12s29.17,11.3,29.17,31.12-13.61,30.87-29.17,30.87-29.17-11.3-29.17-30.87ZM1377.35,101.82c0-13.61-7.54-22.73-18.84-22.73s-18.84,9.12-18.84,22.73,7.54,22.49,18.84,22.49,18.84-9,18.84-22.49Z"/>
          <path class="cls-2" d="M1412.6,72.16h8.39l.97,13.98h.24c6.2-9.6,15.44-15.44,26.38-15.44,4.38,0,8.02.61,11.67,2.43l-2.31,8.63c-4.13-1.34-6.32-1.94-10.94-1.94-8.87,0-17.26,4.5-24.31,16.9v34.52h-10.09v-59.07Z"/>
          <path class="cls-2" d="M1476.53,123.46l4.62-6.69c6.81,4.86,14.83,8.02,25.65,8.02,9.97,0,14.83-4.13,14.83-9.12,0-4.5-2.31-7.66-18.35-10.94-15.44-3.16-23.09-8.39-23.09-17.26,0-9.48,8.39-16.77,24.55-16.77,9,0,17.99,3.52,23.82,7.54l-4.86,6.44c-5.47-3.77-12.28-6.2-19.81-6.2-9.97,0-13.61,4.01-13.61,8.51,0,5.1,5.11,7.29,17.26,9.85,19.57,4.25,24.31,9.12,24.31,18.23,0,9.6-9.36,17.62-26.26,17.62-11.55,0-21.88-4.25-29.05-9.24Z"/>
        </g>
      </g>
    </g>
  </g>
  <g class="cls-3">
    <g class="cls-3">
      <g class="cls-3">
        <g class="cls-3">
          <path class="cls-2" d="M1287.8,297.85h8.39l.97,13.98h.24c6.2-9.6,15.44-15.44,26.38-15.44,4.38,0,8.02.61,11.67,2.43l-2.31,8.63c-4.13-1.34-6.32-1.94-10.94-1.94-8.87,0-17.26,4.5-24.31,16.9v34.52h-10.09v-59.07Z"/>
          <path class="cls-2" d="M1352.83,341.61c0-13.25,12.4-19.69,42.91-22.12-.36-8.02-4.25-14.83-15.68-14.83-7.66,0-15.19,3.65-20.66,7.05l-4.01-6.81c6.08-3.89,16.04-8.51,26.38-8.51,16.17,0,24.07,9.6,24.07,24.31v36.22h-8.39l-.85-8.02h-.36c-6.44,5.11-14.95,9.48-23.22,9.48-11.06,0-20.18-6.2-20.18-16.77ZM1395.74,341.49v-15.32c-25.28,1.94-32.94,6.93-32.94,14.71,0,6.69,6.08,9.36,12.88,9.36s13.25-3.16,20.06-8.75Z"/>
          <path class="cls-2" d="M1427.34,297.85h8.26l.85,9.97h.49c6.2-6.44,13.01-11.43,22.24-11.43,13.98,0,20.42,8.27,20.42,23.82v36.71h-10.09v-35.37c0-11.18-3.89-16.41-13.49-16.41-7.05,0-11.79,3.52-18.6,10.57v41.21h-10.09v-59.07Z"/>
          <path class="cls-2" d="M1497.72,367.74c0-4.74,3.4-9.48,9.72-13.13v-.49c-3.16-1.7-6.08-4.74-6.08-9.72,0-3.77,2.55-8.02,7.05-11.06v-.49c-4.01-3.04-7.29-8.27-7.29-15.32,0-12.88,10.7-21.15,23.22-21.15,3.4,0,6.2.49,8.75,1.46h24.43v8.14h-15.32c2.67,2.8,4.98,7.17,4.98,11.91,0,12.64-10.09,20.3-22.85,20.3-3.04,0-6.68-.73-9.97-2.19-2.92,1.82-4.62,4.01-4.62,6.81,0,4.62,4.5,6.81,12.28,6.81h13.25c15.19,0,22.49,3.89,22.49,13.86,0,11.06-12.76,20.66-32.82,20.66-17.26,0-27.23-5.96-27.23-16.41ZM1547.92,365.07c0-5.59-4.5-7.17-13.49-7.17h-11.55c-3.4,0-6.44-.24-9-.97-5.59,3.04-7.54,6.44-7.54,9.85,0,6.2,6.69,10.09,19.33,10.09,13.74,0,22.24-5.71,22.24-11.79ZM1537.95,317.54c0-8.27-6.08-13.86-13.61-13.86s-13.61,5.59-13.61,13.86,6.2,13.98,13.61,13.98,13.61-5.47,13.61-13.98Z"/>
          <path class="cls-2" d="M1570.16,327.27c0-19.21,14.34-30.87,30.14-30.87,17.02,0,26.98,11.06,26.98,27.71,0,2.31-.24,4.5-.49,6.08h-49.96v-7.78h44l-2.55,2.8c0-13.98-6.93-20.91-17.75-20.91s-20.42,8.27-20.42,22.97,9.97,23.09,23.09,23.09c7.05,0,12.64-2.19,17.99-5.59l3.65,6.56c-5.83,3.89-13.37,7.05-22.85,7.05-17.75,0-31.85-11.43-31.85-31.12Z"/>
          <path class="cls-2" d="M1643.45,349.15l4.62-6.69c6.81,4.86,14.83,8.02,25.65,8.02,9.97,0,14.83-4.13,14.83-9.12,0-4.5-2.31-7.66-18.35-10.94-15.44-3.16-23.09-8.39-23.09-17.26,0-9.48,8.39-16.77,24.55-16.77,9,0,17.99,3.52,23.82,7.54l-4.86,6.44c-5.47-3.77-12.28-6.2-19.81-6.2-9.97,0-13.61,4.01-13.61,8.51,0,5.1,5.11,7.29,17.26,9.85,19.57,4.25,24.31,9.12,24.31,18.23,0,9.6-9.36,17.62-26.26,17.62-11.55,0-21.88-4.25-29.05-9.24Z"/>
        </g>
      </g>
    </g>
  </g>
  <g class="cls-3">
    <g class="cls-3">
      <g class="cls-3">
        <g class="cls-3">
          <path class="cls-2" d="M1216.7,662.67v-36.71h10.09v35.37c0,11.06,3.89,16.41,13.61,16.41,6.81,0,11.79-3.16,18.35-10.82v-40.96h10.09v59.07h-8.39l-.85-10.33h-.49c-5.96,6.93-12.88,11.79-22,11.79-13.98,0-20.42-8.27-20.42-23.82Z"/>
          <path class="cls-2" d="M1291.58,625.96h8.26l.85,9.97h.49c6.2-6.44,13.01-11.43,22.24-11.43,13.98,0,20.42,8.26,20.42,23.82v36.71h-10.09v-35.37c0-11.18-3.89-16.41-13.49-16.41-7.05,0-11.79,3.53-18.6,10.58v41.21h-10.09v-59.07Z"/>
          <path class="cls-2" d="M1391.49,634.11h-27.35v-8.14h37.44v59.07h-10.09v-50.93ZM1387.48,605.79c0-4.62,3.4-7.78,8.02-7.78s8.02,3.16,8.02,7.78-3.4,7.78-8.02,7.78-8.02-3.04-8.02-7.78Z"/>
          <path class="cls-2" d="M1451.17,662.07v-27.96h-16.77v-7.54l17.14-.61,1.34-18.96h8.39v18.96h28.93v8.14h-28.93v28.08c0,10.58,3.53,16.04,14.95,16.04,5.47,0,9.85-1.09,14.1-2.67l2.19,7.42c-5.35,1.95-11.06,3.53-18.48,3.53-17.26,0-22.85-9.85-22.85-24.43Z"/>
          <path class="cls-2" d="M1524.1,662.07v-27.96h-16.77v-7.54l17.14-.61,1.34-18.96h8.39v18.96h28.93v8.14h-28.93v28.08c0,10.58,3.53,16.04,14.95,16.04,5.47,0,9.85-1.09,14.1-2.67l2.19,7.42c-5.35,1.95-11.06,3.53-18.48,3.53-17.26,0-22.85-9.85-22.85-24.43Z"/>
          <path class="cls-2" d="M1580.25,655.38c0-19.21,14.34-30.87,30.14-30.87,17.02,0,26.98,11.06,26.98,27.71,0,2.31-.24,4.5-.49,6.08h-49.96v-7.78h44l-2.55,2.8c0-13.98-6.93-20.91-17.75-20.91s-20.42,8.27-20.42,22.97,9.97,23.09,23.09,23.09c7.05,0,12.64-2.19,17.99-5.59l3.65,6.56c-5.83,3.89-13.37,7.05-22.85,7.05-17.75,0-31.85-11.43-31.85-31.12Z"/>
          <path class="cls-2" d="M1653.55,677.26l4.62-6.69c6.81,4.86,14.83,8.02,25.65,8.02,9.97,0,14.83-4.13,14.83-9.12,0-4.5-2.31-7.66-18.35-10.94-15.44-3.16-23.09-8.39-23.09-17.26,0-9.48,8.39-16.77,24.55-16.77,9,0,17.99,3.52,23.82,7.54l-4.86,6.44c-5.47-3.77-12.28-6.2-19.81-6.2-9.97,0-13.61,4.01-13.61,8.51,0,5.11,5.11,7.29,17.26,9.85,19.57,4.25,24.31,9.12,24.31,18.23,0,9.6-9.36,17.62-26.26,17.62-11.55,0-21.88-4.25-29.05-9.24Z"/>
          <path class="cls-2" d="M1742.89,662.07v-27.96h-16.77v-7.54l17.14-.61,1.34-18.96h8.39v18.96h28.93v8.14h-28.93v28.08c0,10.58,3.53,16.04,14.95,16.04,5.47,0,9.85-1.09,14.1-2.67l2.19,7.42c-5.35,1.95-11.06,3.53-18.48,3.53-17.26,0-22.85-9.85-22.85-24.43Z"/>
        </g>
      </g>
    </g>
  </g>
  <g class="cls-3">
    <g class="cls-3">
      <g class="cls-3">
        <g class="cls-3">
          <path class="cls-2" d="M58.56,546.61v-27.96h-16.77v-7.54l17.14-.61,1.34-18.96h8.39v18.96h28.93v8.14h-28.93v28.08c0,10.58,3.52,16.04,14.95,16.04,5.47,0,9.85-1.09,14.1-2.67l2.19,7.42c-5.35,1.95-11.06,3.53-18.48,3.53-17.26,0-22.85-9.85-22.85-24.43Z"/>
          <path class="cls-2" d="M117.75,483.04h10.09v23.58l-.61,13.98h.36c5.96-6.56,12.88-11.55,22-11.55,13.98,0,20.42,8.26,20.42,23.82v36.71h-10.09v-35.37c0-11.18-3.89-16.41-13.49-16.41-7.05,0-11.79,3.53-18.6,10.58v41.21h-10.09v-86.54Z"/>
          <path class="cls-2" d="M197,510.51h8.39l.97,13.98h.24c6.2-9.6,15.44-15.44,26.38-15.44,4.38,0,8.02.61,11.67,2.43l-2.31,8.63c-4.13-1.34-6.32-1.94-10.94-1.94-8.87,0-17.26,4.5-24.31,16.9v34.52h-10.09v-59.07Z"/>
          <path class="cls-2" d="M260.57,539.93c0-19.21,14.34-30.87,30.14-30.87,17.02,0,26.98,11.06,26.98,27.71,0,2.31-.24,4.5-.49,6.08h-49.96v-7.78h44l-2.55,2.8c0-13.98-6.93-20.91-17.75-20.91s-20.42,8.27-20.42,22.97,9.97,23.09,23.09,23.09c7.05,0,12.64-2.19,17.99-5.59l3.65,6.56c-5.83,3.89-13.37,7.05-22.85,7.05-17.75,0-31.85-11.43-31.85-31.12Z"/>
          <path class="cls-2" d="M334.96,554.27c0-13.25,12.4-19.69,42.91-22.12-.36-8.02-4.25-14.83-15.68-14.83-7.66,0-15.19,3.65-20.66,7.05l-4.01-6.81c6.08-3.89,16.04-8.51,26.38-8.51,16.17,0,24.07,9.6,24.07,24.31v36.22h-8.39l-.85-8.02h-.36c-6.44,5.11-14.95,9.48-23.22,9.48-11.06,0-20.18-6.2-20.18-16.77ZM377.86,554.15v-15.32c-25.28,1.95-32.94,6.93-32.94,14.71,0,6.69,6.08,9.36,12.88,9.36s13.25-3.16,20.06-8.75Z"/>
          <path class="cls-2" d="M405.45,540.17c0-19.21,12.76-31.12,26.74-31.12,7.05,0,12.52,2.79,17.75,7.54h.24l-.49-10.82v-22.73h10.09v86.54h-8.27l-.85-7.78h-.36c-4.86,4.98-11.91,9.24-19.33,9.24-15.32,0-25.53-11.18-25.53-30.87ZM449.7,553.79v-29.42c-5.35-4.98-10.33-6.81-15.44-6.81-10.21,0-18.48,9-18.48,22.49s6.56,22.49,17.38,22.49c5.83,0,11.3-2.92,16.53-8.75Z"/>
          <path class="cls-2" d="M479.72,561.81l4.62-6.69c6.81,4.86,14.83,8.02,25.65,8.02,9.97,0,14.83-4.13,14.83-9.12,0-4.5-2.31-7.66-18.35-10.94-15.44-3.16-23.09-8.39-23.09-17.26,0-9.48,8.39-16.77,24.55-16.77,8.99,0,17.99,3.52,23.82,7.54l-4.86,6.44c-5.47-3.77-12.28-6.2-19.81-6.2-9.97,0-13.61,4.01-13.61,8.51,0,5.11,5.1,7.29,17.26,9.85,19.57,4.25,24.31,9.12,24.31,18.23,0,9.6-9.36,17.62-26.25,17.62-11.55,0-21.88-4.25-29.05-9.24Z"/>
        </g>
      </g>
    </g>
  </g>
  <g class="cls-3">
    <g class="cls-3">
      <g class="cls-3">
        <g class="cls-3">
          <path class="cls-2" d="M71.18,218.75c0-19.81,15.07-31.12,32.94-31.12,9.6,0,16.65,3.89,21.51,8.63l-4.98,6.44c-4.86-4.13-9.97-6.69-16.17-6.69-13.61,0-22.97,9.12-22.97,22.73s9.24,22.49,22.73,22.49c7.29,0,13.37-3.28,18.23-7.42l4.5,6.56c-6.56,5.83-14.71,9.24-23.46,9.24-18.48,0-32.33-11.3-32.33-30.87Z"/>
          <path class="cls-2" d="M141.67,218.75c0-19.81,13.61-31.12,29.17-31.12s29.17,11.3,29.17,31.12-13.61,30.87-29.17,30.87-29.17-11.3-29.17-30.87ZM189.69,218.75c0-13.61-7.54-22.73-18.84-22.73s-18.84,9.12-18.84,22.73,7.54,22.49,18.84,22.49,18.84-9,18.84-22.49Z"/>
          <path class="cls-2" d="M218.61,189.1h8.27l.85,9.97h.49c6.2-6.44,13.01-11.43,22.24-11.43,13.98,0,20.42,8.27,20.42,23.82v36.71h-10.09v-35.37c0-11.18-3.89-16.41-13.49-16.41-7.05,0-11.79,3.52-18.6,10.57v41.21h-10.09v-59.07Z"/>
          <path class="cls-2" d="M289.96,218.75c0-19.81,15.07-31.12,32.94-31.12,9.6,0,16.65,3.89,21.51,8.63l-4.98,6.44c-4.86-4.13-9.97-6.69-16.17-6.69-13.61,0-22.97,9.12-22.97,22.73s9.24,22.49,22.73,22.49c7.29,0,13.37-3.28,18.23-7.42l4.5,6.56c-6.56,5.83-14.71,9.24-23.46,9.24-18.48,0-32.33-11.3-32.33-30.87Z"/>
          <path class="cls-2" d="M361.43,218.51c0-19.21,14.34-30.87,30.14-30.87,17.02,0,26.98,11.06,26.98,27.71,0,2.31-.24,4.5-.49,6.08h-49.96v-7.78h44l-2.55,2.8c0-13.98-6.93-20.91-17.75-20.91s-20.42,8.27-20.42,22.97,9.97,23.09,23.09,23.09c7.05,0,12.64-2.19,17.99-5.59l3.65,6.56c-5.83,3.89-13.37,7.05-22.85,7.05-17.75,0-31.85-11.43-31.85-31.12Z"/>
          <path class="cls-2" d="M437.4,189.1h8.27l.85,7.54h.36c5.47-5.23,13.25-8.99,20.42-8.99,15.92,0,24.43,11.79,24.43,30.15,0,20.06-12.64,31.85-26.86,31.85-5.47,0-12.28-2.8-17.62-7.66h-.24l.49,11.18v19.93h-10.09v-83.99ZM481.4,217.78c0-13.01-4.86-21.64-16.65-21.64-5.23,0-11.3,2.67-17.26,8.75v29.42c5.47,4.98,11.67,6.81,15.68,6.81,10.45,0,18.23-8.75,18.23-23.34Z"/>
          <path class="cls-2" d="M524.06,225.2v-27.96h-16.77v-7.54l17.14-.61,1.34-18.96h8.39v18.96h28.93v8.14h-28.93v28.08c0,10.57,3.52,16.04,14.95,16.04,5.47,0,9.85-1.09,14.1-2.67l2.19,7.41c-5.35,1.94-11.06,3.52-18.48,3.52-17.26,0-22.85-9.85-22.85-24.43Z"/>
          <path class="cls-2" d="M580.58,240.39l4.62-6.69c6.81,4.86,14.83,8.02,25.65,8.02,9.97,0,14.83-4.13,14.83-9.12,0-4.5-2.31-7.66-18.35-10.94-15.44-3.16-23.09-8.39-23.09-17.26,0-9.48,8.39-16.77,24.55-16.77,8.99,0,17.99,3.52,23.82,7.54l-4.86,6.44c-5.47-3.77-12.28-6.2-19.81-6.2-9.97,0-13.61,4.01-13.61,8.51,0,5.1,5.11,7.29,17.26,9.85,19.57,4.25,24.31,9.12,24.31,18.23,0,9.6-9.36,17.62-26.25,17.62-11.55,0-21.88-4.25-29.05-9.24Z"/>
        </g>
      </g>
    </g>
  </g>
  <g class="cls-3">
    <g class="cls-3">
      <g class="cls-3">
        <g class="cls-3">
          <path class="cls-2" d="M53.09,805h8.27l.85,7.54h.36c5.47-5.23,13.25-8.99,20.42-8.99,15.92,0,24.43,11.79,24.43,30.14,0,20.06-12.64,31.85-26.86,31.85-5.47,0-12.28-2.8-17.62-7.66h-.24l.49,11.18v19.93h-10.09v-83.99ZM97.09,833.69c0-13.01-4.86-21.64-16.65-21.64-5.23,0-11.3,2.67-17.26,8.75v29.42c5.47,4.98,11.67,6.81,15.68,6.81,10.45,0,18.23-8.75,18.23-23.34Z"/>
          <path class="cls-2" d="M124.43,848.76c0-13.25,12.4-19.69,42.91-22.12-.36-8.02-4.25-14.83-15.68-14.83-7.66,0-15.19,3.65-20.66,7.05l-4.01-6.81c6.08-3.89,16.04-8.51,26.38-8.51,16.17,0,24.07,9.6,24.07,24.31v36.22h-8.39l-.85-8.02h-.36c-6.44,5.11-14.95,9.48-23.22,9.48-11.06,0-20.18-6.2-20.18-16.77ZM167.34,848.64v-15.32c-25.28,1.95-32.94,6.93-32.94,14.71,0,6.69,6.08,9.36,12.88,9.36s13.25-3.16,20.06-8.75Z"/>
          <path class="cls-2" d="M197.36,834.66c0-19.81,15.07-31.12,32.94-31.12,9.6,0,16.65,3.89,21.51,8.63l-4.98,6.44c-4.86-4.13-9.97-6.69-16.17-6.69-13.61,0-22.97,9.12-22.97,22.73s9.24,22.49,22.73,22.49c7.29,0,13.37-3.28,18.23-7.41l4.5,6.56c-6.56,5.83-14.71,9.24-23.46,9.24-18.48,0-32.33-11.3-32.33-30.87Z"/>
          <path class="cls-2" d="M273.33,777.53h10.09v58.47h.49l31.73-31h11.55l-43.76,43.03v16.04h-10.09v-86.54ZM296.06,832.71l6.08-6.56,28.2,37.92h-11.18l-23.09-31.36Z"/>
          <path class="cls-2" d="M343.22,848.76c0-13.25,12.4-19.69,42.91-22.12-.36-8.02-4.25-14.83-15.68-14.83-7.66,0-15.19,3.65-20.66,7.05l-4.01-6.81c6.08-3.89,16.04-8.51,26.38-8.51,16.17,0,24.07,9.6,24.07,24.31v36.22h-8.39l-.85-8.02h-.36c-6.44,5.11-14.95,9.48-23.22,9.48-11.06,0-20.18-6.2-20.18-16.77ZM386.13,848.64v-15.32c-25.28,1.95-32.94,6.93-32.94,14.71,0,6.69,6.08,9.36,12.88,9.36s13.25-3.16,20.06-8.75Z"/>
          <path class="cls-2" d="M415.18,874.89c0-4.74,3.4-9.48,9.72-13.13v-.49c-3.16-1.7-6.08-4.74-6.08-9.72,0-3.77,2.55-8.02,7.05-11.06v-.49c-4.01-3.04-7.29-8.27-7.29-15.32,0-12.88,10.7-21.15,23.22-21.15,3.4,0,6.2.49,8.75,1.46h24.43v8.14h-15.32c2.67,2.79,4.98,7.17,4.98,11.91,0,12.64-10.09,20.3-22.85,20.3-3.04,0-6.69-.73-9.97-2.19-2.92,1.82-4.62,4.01-4.62,6.81,0,4.62,4.5,6.81,12.28,6.81h13.25c15.19,0,22.49,3.89,22.49,13.86,0,11.06-12.76,20.66-32.82,20.66-17.26,0-27.23-5.96-27.23-16.41ZM465.38,872.22c0-5.59-4.5-7.17-13.49-7.17h-11.55c-3.4,0-6.44-.24-9-.97-5.59,3.04-7.54,6.44-7.54,9.85,0,6.2,6.69,10.09,19.33,10.09,13.74,0,22.24-5.71,22.24-11.79ZM455.41,824.69c0-8.27-6.08-13.86-13.61-13.86s-13.61,5.59-13.61,13.86,6.2,13.98,13.61,13.98,13.61-5.47,13.61-13.98Z"/>
          <path class="cls-2" d="M517.64,813.15h-27.35v-8.14h37.44v59.07h-10.09v-50.93ZM513.63,784.82c0-4.62,3.4-7.78,8.02-7.78s8.02,3.16,8.02,7.78-3.4,7.78-8.02,7.78-8.02-3.04-8.02-7.78Z"/>
          <path class="cls-2" d="M563.59,805h8.27l.85,9.97h.49c6.2-6.44,13.01-11.43,22.24-11.43,13.98,0,20.42,8.26,20.42,23.82v36.71h-10.09v-35.37c0-11.18-3.89-16.41-13.49-16.41-7.05,0-11.79,3.53-18.6,10.58v41.21h-10.09v-59.07Z"/>
          <path class="cls-2" d="M633.96,874.89c0-4.74,3.4-9.48,9.72-13.13v-.49c-3.16-1.7-6.08-4.74-6.08-9.72,0-3.77,2.55-8.02,7.05-11.06v-.49c-4.01-3.04-7.29-8.27-7.29-15.32,0-12.88,10.7-21.15,23.22-21.15,3.4,0,6.2.49,8.75,1.46h24.43v8.14h-15.32c2.67,2.79,4.98,7.17,4.98,11.91,0,12.64-10.09,20.3-22.85,20.3-3.04,0-6.69-.73-9.97-2.19-2.92,1.82-4.62,4.01-4.62,6.81,0,4.62,4.5,6.81,12.28,6.81h13.25c15.19,0,22.49,3.89,22.49,13.86,0,11.06-12.76,20.66-32.82,20.66-17.26,0-27.23-5.96-27.23-16.41ZM684.16,872.22c0-5.59-4.5-7.17-13.49-7.17h-11.55c-3.4,0-6.44-.24-9-.97-5.59,3.04-7.54,6.44-7.54,9.85,0,6.2,6.69,10.09,19.33,10.09,13.74,0,22.24-5.71,22.24-11.79ZM674.2,824.69c0-8.27-6.08-13.86-13.61-13.86s-13.61,5.59-13.61,13.86,6.2,13.98,13.61,13.98,13.61-5.47,13.61-13.98Z"/>
        </g>
      </g>
    </g>
  </g>
  <g class="cls-3">
    <g class="cls-3">
      <g class="cls-3">
        <g class="cls-3">
          <path class="cls-2" d="M957.79,891.29v-58.59h-20.91v-8.14h31v67.46c0,8.51,4.62,12.16,11.67,12.16,3.4,0,7.05-.85,11.06-2.67l2.55,7.54c-5.47,2.31-9.36,3.53-15.8,3.53-12.64,0-19.57-7.29-19.57-21.27Z"/>
          <path class="cls-2" d="M1039.11,860.17h-27.35v-8.14h37.44v59.07h-10.09v-50.93ZM1035.09,831.85c0-4.62,3.4-7.78,8.02-7.78s8.02,3.16,8.02,7.78-3.4,7.78-8.02,7.78-8.02-3.04-8.02-7.78Z"/>
          <path class="cls-2" d="M1085.05,852.02h8.26l.85,9.97h.49c6.2-6.44,13.01-11.43,22.24-11.43,13.98,0,20.42,8.26,20.42,23.82v36.71h-10.09v-35.37c0-11.18-3.89-16.41-13.49-16.41-7.05,0-11.79,3.53-18.6,10.58v41.21h-10.09v-59.07Z"/>
          <path class="cls-2" d="M1156.4,895.78c0-13.25,12.4-19.69,42.91-22.12-.36-8.02-4.25-14.83-15.68-14.83-7.66,0-15.19,3.65-20.66,7.05l-4.01-6.81c6.08-3.89,16.04-8.51,26.38-8.51,16.17,0,24.07,9.6,24.07,24.31v36.22h-8.39l-.85-8.02h-.36c-6.44,5.11-14.95,9.48-23.22,9.48-11.06,0-20.18-6.2-20.18-16.77ZM1199.31,895.66v-15.32c-25.28,1.95-32.94,6.93-32.94,14.71,0,6.69,6.08,9.36,12.88,9.36s13.25-3.16,20.06-8.75Z"/>
          <path class="cls-2" d="M1249.51,891.29v-58.59h-20.91v-8.14h31v67.46c0,8.51,4.62,12.16,11.67,12.16,3.4,0,7.05-.85,11.06-2.67l2.55,7.54c-5.47,2.31-9.36,3.53-15.8,3.53-12.64,0-19.57-7.29-19.57-21.27Z"/>
          <path class="cls-2" d="M1301.28,921.92c0-4.74,3.4-9.48,9.72-13.13v-.49c-3.16-1.7-6.08-4.74-6.08-9.72,0-3.77,2.55-8.02,7.05-11.06v-.49c-4.01-3.04-7.29-8.27-7.29-15.32,0-12.88,10.7-21.15,23.22-21.15,3.4,0,6.2.49,8.75,1.46h24.43v8.14h-15.32c2.67,2.79,4.98,7.17,4.98,11.91,0,12.64-10.09,20.3-22.85,20.3-3.04,0-6.68-.73-9.97-2.19-2.92,1.82-4.62,4.01-4.62,6.81,0,4.62,4.5,6.81,12.28,6.81h13.25c15.19,0,22.49,3.89,22.49,13.86,0,11.06-12.76,20.66-32.82,20.66-17.26,0-27.23-5.96-27.23-16.41ZM1351.49,919.24c0-5.59-4.5-7.17-13.49-7.17h-11.55c-3.4,0-6.44-.24-9-.97-5.59,3.04-7.54,6.44-7.54,9.85,0,6.2,6.69,10.09,19.33,10.09,13.74,0,22.24-5.71,22.24-11.79ZM1341.52,871.71c0-8.27-6.08-13.86-13.61-13.86s-13.61,5.59-13.61,13.86,6.2,13.98,13.61,13.98,13.61-5.47,13.61-13.98Z"/>
        </g>
      </g>
    </g>
  </g>
</svg>