<?xml version="1.0" encoding="UTF-8"?>
<svg id="Layer_1" data-name="Layer 1" xmlns="http://www.w3.org/2000/svg" version="1.1" viewBox="0 0 330 221">
  <defs>
    <style>
      .cls-1 {
        fill: #414042;
      }

      .cls-1, .cls-2, .cls-3 {
        stroke-width: 0px;
      }

      .cls-2 {
        fill: #fff;
      }

      .cls-3 {
        fill: #1c75bc;
      }
    </style>
  </defs>
  <rect class="cls-1" x="0" y="0" width="330" height="221"/>
  <g>
    <path class="cls-3" d="M157.47,47.86c.77.72.66.62,1.45,1.34l.9.82c13.09-7.43,28.23-11.67,44.36-11.67,45.99,0,83.92,34.49,89.33,79.02h0c6.98,1.56,13.78,2.86,20.34,3.94.2-1.31.38-2.63.52-3.95.36-3.26.55-6.56.55-9.92,0-49.71-40.29-90-90-90-26.86,0-50.96,11.76-67.45,30.42h0Z"/>
    <path class="cls-2" d="M275.51,203.81c11.59,2.19,23.01,4.24,34.24,6.16-29.88-74.94-107.85-120.84-176.44-122.82-65.85-1.9-113.13,36.97-123.43,45.86,3.2,1.11,4.82,1.67,8.06,2.77l1.61.55c27.97-17.89,61.21-28.26,96.87-28.26,68.35,0,128.61,39.63,159.09,95.74"/>
  </g>
</svg>